<svg id="Laag_1" data-name="Laag 1" xmlns="http://www.w3.org/2000/svg" viewBox="0 0 509.63 119.33"><defs><style>.cls-1{fill:#f4f4f6;}.cls-2{fill:none;stroke:#f4f4f6;stroke-miterlimit:10;}</style></defs><title>Logo</title><path class="cls-1" d="M105.8,13.41v89.5H76.29V70.52H41.55v32.39H12V13.41H41.55V45.8H76.29V13.41Z"/><path class="cls-1" d="M113.27,63.92V13.41H143V63.17c0,11.08,4.9,18,16.62,18s16.84-6.93,16.84-18V13.41H206V63.7c0,29.09-15.55,42.2-46.35,42.2S113.27,92.79,113.27,63.92Z"/><path class="cls-1" d="M275.78,75.1v27.81H246.26V75L209.71,13.41h31L259.9,47.08h2.34l19.18-33.67h31Z"/><path class="cls-1" d="M364.44,91.09H326.08l-3.95,11.82H291.66l32.93-89.5h41.34l32.93,89.5H368.38Zm-7.25-21.85-9.38-28.13H342.7l-9.38,28.13Z"/><path class="cls-1" d="M478.35,38H446.17v64.89H416.66V38H384.48V13.41h93.87Z"/><path class="cls-2" d="M125.05,13.43v89.51H95.53V70.54H60.79v32.4H31.28V13.43H60.79V45.82H95.53V13.43Z"/><path class="cls-2" d="M132.51,63.94V13.43h29.73V63.19c0,11.08,4.9,18,16.62,18s16.84-6.93,16.84-18V13.43h29.51V63.72c0,29.09-15.55,42.2-46.35,42.2S132.51,92.81,132.51,63.94Z"/><path class="cls-2" d="M295,75.12v27.82H265.5V75L229,13.43h31L279.14,47.1h2.34l19.18-33.67h31Z"/><path class="cls-2" d="M376.43,69.26l-9.38-28.13h-5.11l-9.37,28.13Zm7.25,21.85H345.32l-3.94,11.83H310.9l32.93-89.51h41.34l32.93,89.51H387.62Z"/><path class="cls-2" d="M497.59,38H465.41v64.9H435.9V38H403.72V13.43h93.87Z"/><polygon class="cls-2" points="121.2 13.42 121.2 102.93 91.68 102.93 91.68 70.54 56.94 70.54 56.94 102.93 27.43 102.93 27.43 13.42 56.94 13.42 56.94 45.82 91.68 45.82 91.68 13.42 121.2 13.42"/><path class="cls-2" d="M128.66,63.93V13.42h29.73V63.19c0,11.08,4.9,18,16.62,18s16.84-6.92,16.84-18V13.42h29.52v50.3c0,29.09-15.56,42.2-46.36,42.2S128.66,92.81,128.66,63.93Z"/><polygon class="cls-2" points="291.17 75.12 291.17 102.93 261.65 102.93 261.65 75.01 225.1 13.42 256.11 13.42 275.29 47.09 277.64 47.09 296.82 13.42 327.82 13.42 291.17 75.12"/><path class="cls-2" d="M372.59,69.26l-9.38-28.13h-5.12l-9.37,28.13Zm7.24,21.84H341.47l-3.94,11.83H307.05L340,13.42h41.34l32.93,89.51H383.77Z"/><polygon class="cls-2" points="493.75 38.04 461.57 38.04 461.57 102.93 432.05 102.93 432.05 38.04 399.87 38.04 399.87 13.42 493.75 13.42 493.75 38.04"/><polygon class="cls-2" points="117.35 13.42 117.35 102.93 87.83 102.93 87.83 70.53 53.09 70.53 53.09 102.93 23.58 102.93 23.58 13.42 53.09 13.42 53.09 45.81 87.83 45.81 87.83 13.42 117.35 13.42"/><path class="cls-2" d="M124.81,63.93V13.42h29.73V63.18c0,11.08,4.9,18,16.63,18S188,74.26,188,63.18V13.42h29.52V63.71c0,29.09-15.56,42.2-46.35,42.2S124.81,92.8,124.81,63.93Z"/><polygon class="cls-2" points="287.32 75.12 287.32 102.93 257.81 102.93 257.81 75.01 221.26 13.42 252.26 13.42 271.44 47.09 273.79 47.09 292.97 13.42 323.98 13.42 287.32 75.12"/><path class="cls-2" d="M368.74,69.25l-9.38-28.12h-5.12l-9.37,28.12ZM376,91.1H337.62l-3.94,11.83H303.2l32.93-89.51h41.34l32.93,89.51H379.92Z"/><polygon class="cls-2" points="489.9 38.03 457.72 38.03 457.72 102.93 428.2 102.93 428.2 38.03 396.02 38.03 396.02 13.42 489.9 13.42 489.9 38.03"/><polygon class="cls-2" points="113.5 13.41 113.5 102.92 83.98 102.92 83.98 70.53 49.25 70.53 49.25 102.92 19.73 102.92 19.73 13.41 49.25 13.41 49.25 45.81 83.98 45.81 83.98 13.41 113.5 13.41"/><path class="cls-2" d="M121,63.92V13.42H150.7V63.18c0,11.08,4.9,18,16.62,18s16.83-6.92,16.83-18V13.42h29.52V63.71c0,29.09-15.56,42.2-46.35,42.2S121,92.8,121,63.92Z"/><polygon class="cls-2" points="283.47 75.11 283.47 102.92 253.96 102.92 253.96 75 217.41 13.41 248.42 13.41 267.6 47.09 269.94 47.09 289.12 13.41 320.13 13.41 283.47 75.11"/><path class="cls-2" d="M364.89,69.25l-9.38-28.13H350.4L341,69.25Zm7.24,21.84H333.77l-3.94,11.83H299.36l32.92-89.5h41.35l32.92,89.5H376.08Z"/><polygon class="cls-2" points="486.05 38.03 453.87 38.03 453.87 102.92 424.36 102.92 424.36 38.03 392.17 38.03 392.17 13.41 486.05 13.41 486.05 38.03"/><polygon class="cls-2" points="109.65 13.41 109.65 102.92 80.14 102.92 80.14 70.53 45.4 70.53 45.4 102.92 15.88 102.92 15.88 13.41 45.4 13.41 45.4 45.8 80.14 45.8 80.14 13.41 109.65 13.41"/><path class="cls-2" d="M117.12,63.92V13.41h29.73V63.17c0,11.08,4.9,18,16.62,18s16.84-6.93,16.84-18V13.41h29.51v50.3c0,29.09-15.56,42.19-46.35,42.19S117.12,92.8,117.12,63.92Z"/><polygon class="cls-2" points="279.63 75.11 279.63 102.92 250.11 102.92 250.11 75 213.56 13.41 244.57 13.41 263.75 47.08 266.09 47.08 285.27 13.41 316.28 13.41 279.63 75.11"/><path class="cls-2" d="M361,69.25l-9.38-28.13h-5.11l-9.38,28.13Zm7.25,21.84H329.93L326,102.92H295.51l32.92-89.51h41.35l32.92,89.51H372.23Z"/><polygon class="cls-2" points="482.2 38.02 450.02 38.02 450.02 102.92 420.51 102.92 420.51 38.02 388.32 38.02 388.32 13.41 482.2 13.41 482.2 38.02"/><path class="cls-2" d="M105.8,13.41v89.5H76.29V70.52H41.55v32.39H12V13.41H41.55V45.8H76.29V13.41Z"/><path class="cls-2" d="M113.27,63.91V13.41H143V63.17c0,11.08,4.9,18,16.62,18s16.84-6.93,16.84-18V13.41H206V63.7c0,29.09-15.55,42.2-46.35,42.2S113.27,92.79,113.27,63.91Z"/><path class="cls-2" d="M275.78,75.1v27.81H246.26V75L209.71,13.41h31L259.9,47.08h2.34l19.18-33.67h31Z"/><path class="cls-2" d="M357.19,69.24l-9.38-28.13H342.7l-9.38,28.13Zm7.25,21.85H326.08l-3.94,11.82H291.66l32.93-89.5h41.34l32.93,89.5H368.38Z"/><path class="cls-2" d="M478.35,38H446.17v64.89H416.66V38H384.48V13.41h93.87Z"/></svg>