<svg id="Laag_1" data-name="Laag 1" xmlns="http://www.w3.org/2000/svg" viewBox="0 0 125.05 119.33"><defs><style>.cls-1{fill:none;stroke:#f4f4f6;stroke-miterlimit:10;}.cls-2{fill:#f4f4f6;}</style></defs><title>Logo_1</title><path class="cls-1" d="M117.6,16v87.24H88.83V71.71H55v31.57H26.2V16H55V47.62H88.83V16Z"/><path class="cls-1" d="M113.85,16v87.24H85.08V71.71H51.22v31.57H22.45V16H51.22V47.62H85.08V16Z"/><path class="cls-1" d="M110.1,16v87.24H81.33V71.71H47.47v31.57H18.7V16H47.47V47.62H81.33V16Z"/><path class="cls-1" d="M106.34,16v87.24H77.57V71.71H43.72v31.57H15V16H43.72V47.62H77.57V16Z"/><path class="cls-1" d="M102.59,16v87.24H73.82V71.71H40v31.57H11.2V16H40V47.62H73.82V16Z"/><path class="cls-1" d="M98.84,16v87.24H70.07V71.71H36.22v31.57H7.45V16H36.22V47.62H70.07V16Z"/><path class="cls-2" d="M98.84,16v87.24H70.07V71.71H36.22v31.57H7.45V16H36.22V47.62H70.07V16Z"/></svg>